<svg width="410" height="420" xmlns="http://www.w3.org/2000/svg" xmlns:svg="http://www.w3.org/2000/svg">
 <!-- Created with SVG-edit - https://github.com/SVG-Edit/svgedit-->
 <g class="layer">
  <title>Layer 1</title>
  <rect stroke="#000000" id="svg_1" height="27" width="25.875" y="9.43748" x="9.00001" stroke-width="5" fill="none"/>
  <text xml:space="preserve" text-anchor="middle" font-family="serif" font-size="24" id="svg_2" y="18.99998" x="19.68751" stroke-linecap="null" stroke-linejoin="null" stroke-dasharray="null" stroke-width="0" stroke="#000000" fill="#000000"/>
  <text xml:space="preserve" text-anchor="middle" font-family="serif" font-size="24" id="svg_3" y="30.81248" x="21.93751" stroke-linecap="null" stroke-linejoin="null" stroke-dasharray="null" stroke-width="0" stroke="#000000" fill="#000000">1</text>
  <rect stroke="#000000" id="svg_6" height="27" width="25.875" y="9.06322" x="35.79345" stroke-width="5" fill="none"/>
  <text xml:space="preserve" text-anchor="middle" font-family="serif" font-size="24" id="svg_5" y="19.33764" x="46.30298" stroke-linecap="null" stroke-linejoin="null" stroke-dasharray="null" stroke-width="0" stroke="#000000" fill="#000000"/>
  <rect stroke="#000000" id="svg_9" height="20.28955" width="52.68164" y="36.87474" x="8.93406" stroke-linecap="null" stroke-linejoin="null" stroke-dasharray="null" stroke-width="5" fill="none"/>
  <rect stroke="#000000" id="svg_15" height="27" width="25.875" y="9.67895" x="94.7593" stroke-width="5" fill="none"/>
  <text xml:space="preserve" text-anchor="middle" font-family="serif" font-size="24" id="svg_14" y="19.24145" x="105.44681" stroke-linecap="null" stroke-linejoin="null" stroke-dasharray="null" stroke-width="0" stroke="#000000" fill="#000000"/>
  <text style="cursor: move;" xml:space="preserve" text-anchor="middle" font-family="serif" font-size="24" id="svg_13" y="31.05395" x="108.32962" stroke-linecap="null" stroke-linejoin="null" stroke-dasharray="null" stroke-width="0" stroke="#000000" fill="#000000">4</text>
  <rect stroke="#000000" id="svg_12" height="27" width="25.875" y="9.66064" x="121.55275" stroke-width="5" fill="none"/>
  <text xml:space="preserve" text-anchor="middle" font-family="serif" font-size="24" id="svg_11" y="19.5791" x="132.06227" stroke-linecap="null" stroke-linejoin="null" stroke-dasharray="null" stroke-width="0" stroke="#000000" fill="#000000"/>
  <rect stroke="#000000" id="svg_10" height="20.28955" width="52.68164" y="37.1162" x="94.69335" stroke-linecap="null" stroke-linejoin="null" stroke-dasharray="null" stroke-width="5" fill="none"/>
  <path stroke="#000000" transform="rotate(90.0146 68.0661 24.3225)" id="svg_23" d="m62.19028,24.2804l5.87695,-17.47859l5.87463,17.47859l-2.93794,0l0,17.56277l-5.87577,0l0,-17.56277l-2.93787,0z" stroke-linecap="null" stroke-linejoin="null" stroke-dasharray="null" stroke-width="5" fill="none"/>
  <rect stroke="#000000" id="svg_37" height="27" width="25.875" y="81.71703" x="8.05738" stroke-width="5" fill="none"/>
  <text xml:space="preserve" text-anchor="middle" font-family="serif" font-size="24" id="svg_36" y="91.27953" x="18.74489" stroke-linecap="null" stroke-linejoin="null" stroke-dasharray="null" stroke-width="0" stroke="#000000" fill="#000000"/>
  <text style="cursor: move;" xml:space="preserve" text-anchor="middle" font-family="serif" font-size="24" id="svg_35" y="103.09203" x="20.99489" stroke-linecap="null" stroke-linejoin="null" stroke-dasharray="null" stroke-width="0" stroke="#000000" fill="#000000">2</text>
  <rect stroke="#000000" id="svg_34" height="27" width="25.875" y="81.34277" x="34.85083" stroke-width="5" fill="none"/>
  <text xml:space="preserve" text-anchor="middle" font-family="serif" font-size="24" id="svg_33" y="91.61718" x="45.36035" stroke-linecap="null" stroke-linejoin="null" stroke-dasharray="null" stroke-width="0" stroke="#000000" fill="#000000"/>
  <rect stroke="#000000" id="svg_32" height="20.28955" width="52.68164" y="109.15428" x="7.99143" stroke-linecap="null" stroke-linejoin="null" stroke-dasharray="null" stroke-width="5" fill="none"/>
  <rect stroke="#000000" id="svg_31" height="27" width="25.875" y="81.95849" x="93.81668" stroke-width="5" fill="none"/>
  <text xml:space="preserve" text-anchor="middle" font-family="serif" font-size="24" id="svg_30" y="91.52099" x="104.50418" stroke-linecap="null" stroke-linejoin="null" stroke-dasharray="null" stroke-width="0" stroke="#000000" fill="#000000"/>
  <text style="cursor: move;" xml:space="preserve" text-anchor="middle" font-family="serif" font-size="24" id="svg_29" y="103.33349" x="107.38699" stroke-linecap="null" stroke-linejoin="null" stroke-dasharray="null" stroke-width="0" stroke="#000000" fill="#000000">4</text>
  <rect stroke="#000000" id="svg_28" height="27" width="25.875" y="81.94019" x="120.61012" stroke-width="5" fill="none"/>
  <text xml:space="preserve" text-anchor="middle" font-family="serif" font-size="24" id="svg_27" y="91.85865" x="131.11964" stroke-linecap="null" stroke-linejoin="null" stroke-dasharray="null" stroke-width="0" stroke="#000000" fill="#000000"/>
  <rect stroke="#000000" id="svg_26" height="20.28955" width="52.68164" y="109.39575" x="93.75072" stroke-linecap="null" stroke-linejoin="null" stroke-dasharray="null" stroke-width="5" fill="none"/>
  <path stroke="#000000" transform="rotate(90.0146 67.1235 96.602)" id="svg_25" d="m61.24765,96.55994l5.87695,-17.47859l5.87463,17.47859l-2.93793,0l0,17.56277l-5.87576,0l0,-17.56277l-2.93788,0z" stroke-linecap="null" stroke-linejoin="null" stroke-dasharray="null" stroke-width="5" fill="none"/>
  <path stroke="#000000" transform="rotate(75.2687 17.7891 61.0617)" id="svg_38" d="m21.40468,66.37479l0.19926,-1.40018l-2.3433,-0.24311c-5.93289,-0.61686 -11.7485,-3.23169 -14.98661,-6.73869c-0.58109,-0.62955 -0.96989,-1.23552 -0.86401,-1.34755c0.2423,-0.25628 6.15026,-2.29643 6.64979,-2.29643c0.20377,0 0.6936,0.3751 1.088,0.83367c1.6832,1.95623 6.03834,3.99641 9.10426,4.26491l1.24322,0.10931l-0.21361,-1.20967c-0.22188,-1.25593 -0.15971,-1.51991 0.35941,-1.51991c0.33186,0 10.23987,4.8228 10.52315,5.12217c0.21485,0.22723 -1.14765,1.06996 -6.02702,3.72652c-2.11963,1.15434 -4.09623,2.09866 -4.39268,2.09866c-0.47454,0 -0.51493,-0.16782 -0.33985,-1.39971l0,0z" stroke-linecap="null" stroke-linejoin="null" stroke-dasharray="null" stroke-width="5" fill="#000000"/>
  <rect stroke="#000000" id="svg_53" height="27" width="25.875" y="151.46522" x="9.32301" stroke-width="5" fill="none"/>
  <text xml:space="preserve" text-anchor="middle" font-family="serif" font-size="24" id="svg_52" y="161.02772" x="20.01051" stroke-linecap="null" stroke-linejoin="null" stroke-dasharray="null" stroke-width="0" stroke="#000000" fill="#000000"/>
  <text style="cursor: move;" xml:space="preserve" text-anchor="middle" font-family="serif" font-size="24" id="svg_51" y="172.84022" x="22.26051" stroke-linecap="null" stroke-linejoin="null" stroke-dasharray="null" stroke-width="0" stroke="#000000" fill="#000000">3</text>
  <rect stroke="#000000" id="svg_50" height="27" width="25.875" y="151.09096" x="36.11645" stroke-width="5" fill="none"/>
  <text xml:space="preserve" text-anchor="middle" font-family="serif" font-size="24" id="svg_49" y="161.36537" x="46.62597" stroke-linecap="null" stroke-linejoin="null" stroke-dasharray="null" stroke-width="0" stroke="#000000" fill="#000000"/>
  <rect stroke="#000000" id="svg_48" height="20.28955" width="52.68164" y="178.90247" x="9.25706" stroke-linecap="null" stroke-linejoin="null" stroke-dasharray="null" stroke-width="5" fill="none"/>
  <rect stroke="#000000" id="svg_47" height="27" width="25.875" y="151.70668" x="95.0823" stroke-width="5" fill="none"/>
  <text xml:space="preserve" text-anchor="middle" font-family="serif" font-size="24" id="svg_46" y="161.26918" x="105.7698" stroke-linecap="null" stroke-linejoin="null" stroke-dasharray="null" stroke-width="0" stroke="#000000" fill="#000000"/>
  <text style="cursor: move;" xml:space="preserve" text-anchor="middle" font-family="serif" font-size="24" id="svg_45" y="173.08168" x="108.65262" stroke-linecap="null" stroke-linejoin="null" stroke-dasharray="null" stroke-width="0" stroke="#000000" fill="#000000">4</text>
  <rect stroke="#000000" id="svg_44" height="27" width="25.875" y="151.68838" x="121.87574" stroke-width="5" fill="none"/>
  <text xml:space="preserve" text-anchor="middle" font-family="serif" font-size="24" id="svg_43" y="161.60684" x="132.38527" stroke-linecap="null" stroke-linejoin="null" stroke-dasharray="null" stroke-width="0" stroke="#000000" fill="#000000"/>
  <rect stroke="#000000" id="svg_42" height="20.28955" width="52.68164" y="179.14394" x="95.01635" stroke-linecap="null" stroke-linejoin="null" stroke-dasharray="null" stroke-width="5" fill="none"/>
  <path stroke="#000000" transform="rotate(90.0146 68.3891 166.35)" id="svg_41" d="m62.51328,166.30812l5.87695,-17.47859l5.87463,17.47859l-2.93794,0l0,17.56277l-5.87576,0l0,-17.56277l-2.93788,0z" stroke-linecap="null" stroke-linejoin="null" stroke-dasharray="null" stroke-width="5" fill="none"/>
  <path stroke="#000000" transform="rotate(75.2687 19.0547 130.81)" id="svg_40" d="m22.6703,136.12299l0.19926,-1.40018l-2.34331,-0.24312c-5.93288,-0.61685 -11.7485,-3.23169 -14.9866,-6.73868c-0.58109,-0.62956 -0.96989,-1.23552 -0.86401,-1.34755c0.2423,-0.25629 6.15026,-2.29643 6.64979,-2.29643c0.20377,0 0.6936,0.37511 1.088,0.83366c1.6832,1.95624 6.03834,3.99641 9.10426,4.26491l1.24323,0.10931l-0.21361,-1.20967c-0.22188,-1.25592 -0.15971,-1.5199 0.35941,-1.5199c0.33186,0 10.23987,4.8228 10.52315,5.12216c0.21485,0.22722 -1.14765,1.06996 -6.02702,3.72653c-2.11964,1.15434 -4.09623,2.09865 -4.39268,2.09865c-0.47453,0 -0.51492,-0.1678 -0.33985,-1.3997l0,0z" stroke-linecap="null" stroke-linejoin="null" stroke-dasharray="null" stroke-width="5" fill="#000000"/>
  <rect stroke="#000000" id="svg_67" height="27" width="25.875" y="220.98665" x="8.8191" stroke-width="5" fill="none"/>
  <text xml:space="preserve" text-anchor="middle" font-family="serif" font-size="24" id="svg_66" y="230.54915" x="19.5066" stroke-linecap="null" stroke-linejoin="null" stroke-dasharray="null" stroke-width="0" stroke="#000000" fill="#000000"/>
  <text style="cursor: move;" xml:space="preserve" text-anchor="middle" font-family="serif" font-size="24" id="svg_65" y="242.36165" x="21.7566" stroke-linecap="null" stroke-linejoin="null" stroke-dasharray="null" stroke-width="0" stroke="#000000" fill="#000000">4</text>
  <rect stroke="#000000" id="svg_64" height="27" width="25.875" y="220.61239" x="35.61255" stroke-width="5" fill="none"/>
  <text xml:space="preserve" text-anchor="middle" font-family="serif" font-size="24" id="svg_63" y="230.8868" x="46.12207" stroke-linecap="null" stroke-linejoin="null" stroke-dasharray="null" stroke-width="0" stroke="#000000" fill="#000000"/>
  <rect stroke="#000000" id="svg_62" height="20.28955" width="52.68164" y="248.4239" x="8.75315" stroke-linecap="null" stroke-linejoin="null" stroke-dasharray="null" stroke-width="5" fill="none"/>
  <rect stroke="#000000" id="svg_61" height="27" width="25.875" y="221.22811" x="94.5784" stroke-width="5" fill="none"/>
  <text xml:space="preserve" text-anchor="middle" font-family="serif" font-size="24" id="svg_60" y="230.79061" x="105.2659" stroke-linecap="null" stroke-linejoin="null" stroke-dasharray="null" stroke-width="0" stroke="#000000" fill="#000000"/>
  <text xml:space="preserve" text-anchor="middle" font-family="serif" font-size="24" id="svg_59" y="242.60311" x="107.39871" stroke-linecap="null" stroke-linejoin="null" stroke-dasharray="null" stroke-width="0" stroke="#000000" fill="#000000">1</text>
  <rect stroke="#000000" id="svg_58" height="27" width="25.875" y="221.20981" x="121.37184" stroke-width="5" fill="none"/>
  <text xml:space="preserve" text-anchor="middle" font-family="serif" font-size="24" id="svg_57" y="231.12827" x="131.88136" stroke-linecap="null" stroke-linejoin="null" stroke-dasharray="null" stroke-width="0" stroke="#000000" fill="#000000"/>
  <rect stroke="#000000" id="svg_56" height="20.28955" width="52.68164" y="248.66537" x="94.51244" stroke-linecap="null" stroke-linejoin="null" stroke-dasharray="null" stroke-width="5" fill="none"/>
  <path stroke="#000000" transform="rotate(90.0146 67.8852 235.871)" id="svg_55" d="m62.00937,235.82956l5.87695,-17.47861l5.87463,17.47861l-2.93793,0l0,17.56277l-5.87579,0l0,-17.56277l-2.93787,0z" stroke-linecap="null" stroke-linejoin="null" stroke-dasharray="null" stroke-width="5" fill="none"/>
  <path stroke="#000000" transform="rotate(75.2687 18.5508 200.331)" id="svg_54" d="m22.1664,205.64442l0.19926,-1.40019l-2.34331,-0.2431c-5.93289,-0.61685 -11.7485,-3.23169 -14.9866,-6.73869c-0.5811,-0.62956 -0.96989,-1.23552 -0.86401,-1.34755c0.24229,-0.25629 6.15025,-2.29642 6.64978,-2.29642c0.20378,0 0.6936,0.37509 1.088,0.83366c1.68321,1.95624 6.03835,3.99641 9.10426,4.26489l1.24323,0.10933l-0.21361,-1.20969c-0.22188,-1.25592 -0.15971,-1.5199 0.35941,-1.5199c0.33186,0 10.23987,4.82281 10.52315,5.12216c0.21484,0.22723 -1.14766,1.06996 -6.02702,3.72653c-2.11963,1.15436 -4.09622,2.09866 -4.39268,2.09866c-0.47453,0 -0.51492,-0.1678 -0.33984,-1.3997l0,0z" stroke-linecap="null" stroke-linejoin="null" stroke-dasharray="null" stroke-width="5" fill="#000000"/>
  <rect stroke="#000000" id="svg_74" height="27" width="25.875" y="222.36003" x="179.52342" stroke-width="5" fill="none">1</rect>
  <rect stroke="#000000" id="svg_71" height="27" width="25.875" y="222.34172" x="206.31686" stroke-width="5" fill="none">1</rect>
  <rect stroke="#000000" id="svg_69" height="20.28955" width="52.68164" y="249.79728" x="179.45747" stroke-linecap="null" stroke-linejoin="null" stroke-dasharray="null" stroke-width="5" fill="none">1</rect>
  <path transform="rotate(90.0146 152.83 237.003)" stroke="#000000" id="svg_68" d="m146.95439,236.96147l5.87695,-17.47861l5.87463,17.47861l-2.93793,0l0,17.56276l-5.87579,0l0,-17.56276l-2.93787,0z" stroke-linecap="null" stroke-linejoin="null" stroke-dasharray="null" stroke-width="5" fill="none">1</path>
  <text xml:space="preserve" text-anchor="middle" font-family="serif" font-size="24" id="svg_75" y="244.75002" x="192.75" stroke-linecap="null" stroke-linejoin="null" stroke-dasharray="null" stroke-width="0" stroke="#000000" fill="#000000">2</text>
  <rect stroke="#000000" id="svg_80" height="27" width="25.875" y="222.02075" x="267.27348" stroke-width="5" fill="none">1</rect>
  <rect stroke="#000000" id="svg_79" height="27" width="25.875" y="222.00245" x="294.06692" stroke-width="5" fill="none">1</rect>
  <rect stroke="#000000" id="svg_78" height="20.28955" width="52.68164" y="249.45801" x="267.20753" stroke-linecap="null" stroke-linejoin="null" stroke-dasharray="null" stroke-width="5" fill="none">1</rect>
  <path transform="rotate(90.0146 240.58 236.664)" stroke="#000000" id="svg_77" d="m234.70447,236.62219l5.87695,-17.47859l5.87463,17.47859l-2.93793,0l0,17.56277l-5.87579,0l0,-17.56277l-2.93787,0z" stroke-linecap="null" stroke-linejoin="null" stroke-dasharray="null" stroke-width="5" fill="none">1</path>
  <text xml:space="preserve" text-anchor="middle" font-family="serif" font-size="24" id="svg_76" y="244.41075" x="280.50006" stroke-linecap="null" stroke-linejoin="null" stroke-dasharray="null" stroke-width="0" stroke="#000000" fill="#000000">3</text>
  <rect stroke="#000000" id="svg_85" height="27" width="25.875" y="221.27075" x="351.27338" stroke-width="5" fill="none">3</rect>
  <rect stroke="#000000" id="svg_84" height="27" width="25.875" y="221.25245" x="378.06682" stroke-width="5" fill="none">3</rect>
  <rect stroke="#000000" id="svg_83" height="20.28955" width="52.68164" y="248.708" x="351.20743" stroke-linecap="null" stroke-linejoin="null" stroke-dasharray="null" stroke-width="5" fill="none">3</rect>
  <path transform="rotate(90.0146 324.58 235.914)" stroke="#000000" id="svg_82" d="m318.70438,235.87218l5.87695,-17.47858l5.87463,17.47858l-2.93793,0l0,17.56279l-5.87582,0l0,-17.56279l-2.93784,0z" stroke-linecap="null" stroke-linejoin="null" stroke-dasharray="null" stroke-width="5" fill="none">3</path>
  <text style="cursor: move;" xml:space="preserve" text-anchor="middle" font-family="serif" font-size="24" id="svg_81" y="243.66074" x="364.49996" stroke-linecap="null" stroke-linejoin="null" stroke-dasharray="null" stroke-width="0" stroke="#000000" fill="#000000">5</text>
  <rect stroke="#000000" id="svg_98" height="27" width="25.875" y="291.48681" x="9.5691" stroke-width="5" fill="none"/>
  <text xml:space="preserve" text-anchor="middle" font-family="serif" font-size="24" id="svg_97" y="301.04931" x="20.2566" stroke-linecap="null" stroke-linejoin="null" stroke-dasharray="null" stroke-width="0" stroke="#000000" fill="#000000"/>
  <text style="cursor: move;" xml:space="preserve" text-anchor="middle" font-family="serif" font-size="24" id="svg_96" y="312.86181" x="22.5066" stroke-linecap="null" stroke-linejoin="null" stroke-dasharray="null" stroke-width="0" stroke="#000000" fill="#000000">5</text>
  <rect stroke="#000000" id="svg_95" height="27" width="25.875" y="291.11255" x="36.36255" stroke-width="5" fill="none"/>
  <text xml:space="preserve" text-anchor="middle" font-family="serif" font-size="24" id="svg_94" y="301.38696" x="46.87207" stroke-linecap="null" stroke-linejoin="null" stroke-dasharray="null" stroke-width="0" stroke="#000000" fill="#000000"/>
  <rect stroke="#000000" id="svg_93" height="20.28955" width="52.68164" y="318.92407" x="9.50315" stroke-linecap="null" stroke-linejoin="null" stroke-dasharray="null" stroke-width="5" fill="none"/>
  <rect stroke="#000000" id="svg_92" height="27" width="25.875" y="291.72827" x="95.3284" stroke-width="5" fill="none"/>
  <text xml:space="preserve" text-anchor="middle" font-family="serif" font-size="24" id="svg_91" y="301.29077" x="106.0159" stroke-linecap="null" stroke-linejoin="null" stroke-dasharray="null" stroke-width="0" stroke="#000000" fill="#000000"/>
  <text style="cursor: move;" xml:space="preserve" text-anchor="middle" font-family="serif" font-size="24" id="svg_90" y="313.10327" x="108.14871" stroke-linecap="null" stroke-linejoin="null" stroke-dasharray="null" stroke-width="0" stroke="#000000" fill="#000000">4</text>
  <rect stroke="#000000" id="svg_89" height="27" width="25.875" y="291.70997" x="122.12184" stroke-width="5" fill="none"/>
  <rect stroke="#000000" id="svg_88" height="20.28955" width="52.68164" y="319.16553" x="95.26244" stroke-linecap="null" stroke-linejoin="null" stroke-dasharray="null" stroke-width="5" fill="none"/>
  <path stroke="#000000" transform="rotate(90.0146 68.6352 306.371)" id="svg_87" d="m62.75937,306.32971l5.87695,-17.47858l5.87463,17.47858l-2.93793,0l0,17.56277l-5.87579,0l0,-17.56277l-2.93787,0z" stroke-linecap="null" stroke-linejoin="null" stroke-dasharray="null" stroke-width="5" fill="none"/>
  <path stroke="#000000" transform="rotate(75.2687 19.3008 270.831)" id="svg_86" d="m22.9164,276.14456l0.19926,-1.40018l-2.34331,-0.2431c-5.93289,-0.61685 -11.7485,-3.23169 -14.9866,-6.73868c-0.5811,-0.62958 -0.96989,-1.23553 -0.86401,-1.34756c0.24229,-0.25626 6.15025,-2.29639 6.64978,-2.29639c0.20378,0 0.6936,0.37506 1.088,0.83365c1.68321,1.95624 6.03835,3.9964 9.10426,4.26489l1.24323,0.10934l-0.21361,-1.20972c-0.22188,-1.25592 -0.15971,-1.5199 0.35941,-1.5199c0.33186,0 10.23987,4.82281 10.52315,5.12216c0.21484,0.22723 -1.14766,1.06995 -6.02702,3.72653c-2.11963,1.15436 -4.09622,2.09866 -4.39268,2.09866c-0.47453,0 -0.51492,-0.16779 -0.33984,-1.39972l0,0z" stroke-linecap="null" stroke-linejoin="null" stroke-dasharray="null" stroke-width="5" fill="#000000"/>
  <rect stroke="#000000" id="svg_104" height="27" width="25.875" y="292.86011" x="181.7735" stroke-width="5" fill="none"/>
  <text xml:space="preserve" text-anchor="middle" font-family="serif" font-size="24" id="svg_103" y="302.42261" x="192.461" stroke-linecap="null" stroke-linejoin="null" stroke-dasharray="null" stroke-width="0" stroke="#000000" fill="#000000"/>
  <text style="cursor: move;" xml:space="preserve" text-anchor="middle" font-family="serif" font-size="24" id="svg_102" y="314.23511" x="194.59381" stroke-linecap="null" stroke-linejoin="null" stroke-dasharray="null" stroke-width="0" stroke="#000000" fill="#000000">6</text>
  <rect stroke="#000000" id="svg_101" height="27" width="25.875" y="292.84181" x="208.56694" stroke-width="5" fill="none"/>
  <rect stroke="#000000" id="svg_100" height="20.28955" width="52.68164" y="320.29737" x="181.70754" stroke-linecap="null" stroke-linejoin="null" stroke-dasharray="null" stroke-width="5" fill="none"/>
  <path stroke="#000000" transform="rotate(90.0146 155.08 307.503)" id="svg_99" d="m149.20447,307.46155l5.87695,-17.47858l5.87463,17.47858l-2.93793,0l0,17.56277l-5.87579,0l0,-17.56277l-2.93787,0z" stroke-linecap="null" stroke-linejoin="null" stroke-dasharray="null" stroke-width="5" fill="none"/>
  <rect stroke="#000000" id="svg_118" height="27" width="25.875" y="362.73687" x="10.01751" stroke-width="5" fill="none"/>
  <text xml:space="preserve" text-anchor="middle" font-family="serif" font-size="24" id="svg_117" y="372.29937" x="20.70501" stroke-linecap="null" stroke-linejoin="null" stroke-dasharray="null" stroke-width="0" stroke="#000000" fill="#000000"/>
  <text style="cursor: move;" xml:space="preserve" text-anchor="middle" font-family="serif" font-size="24" id="svg_116" y="384.11187" x="22.95501" stroke-linecap="null" stroke-linejoin="null" stroke-dasharray="null" stroke-width="0" stroke="#000000" fill="#000000">6</text>
  <rect stroke="#000000" id="svg_115" height="27" width="25.875" y="362.36261" x="36.81096" stroke-width="5" fill="none"/>
  <text xml:space="preserve" text-anchor="middle" font-family="serif" font-size="24" id="svg_114" y="372.63703" x="47.32048" stroke-linecap="null" stroke-linejoin="null" stroke-dasharray="null" stroke-width="0" stroke="#000000" fill="#000000"/>
  <rect stroke="#000000" id="svg_113" height="20.28955" width="52.68164" y="390.17413" x="9.95156" stroke-linecap="null" stroke-linejoin="null" stroke-dasharray="null" stroke-width="5" fill="none"/>
  <rect stroke="#000000" id="svg_112" height="27" width="25.875" y="362.97833" x="95.77681" stroke-width="5" fill="none"/>
  <text xml:space="preserve" text-anchor="middle" font-family="serif" font-size="24" id="svg_111" y="372.54083" x="106.46431" stroke-linecap="null" stroke-linejoin="null" stroke-dasharray="null" stroke-width="0" stroke="#000000" fill="#000000"/>
  <text style="cursor: move;" xml:space="preserve" text-anchor="middle" font-family="serif" font-size="24" id="svg_110" y="384.35333" x="108.59712" stroke-linecap="null" stroke-linejoin="null" stroke-dasharray="null" stroke-width="0" stroke="#000000" fill="#000000">5</text>
  <rect stroke="#000000" id="svg_109" height="27" width="25.875" y="362.96003" x="122.57025" stroke-width="5" fill="none"/>
  <rect stroke="#000000" id="svg_108" height="20.28955" width="52.68164" y="390.41559" x="95.71085" stroke-linecap="null" stroke-linejoin="null" stroke-dasharray="null" stroke-width="5" fill="none"/>
  <path stroke="#000000" transform="rotate(90.0146 69.0836 377.621)" id="svg_107" d="m63.20778,377.57977l5.87695,-17.47858l5.87463,17.47858l-2.93793,0l0,17.56277l-5.87579,0l0,-17.56277l-2.93787,0z" stroke-linecap="null" stroke-linejoin="null" stroke-dasharray="null" stroke-width="5" fill="none"/>
  <path stroke="#000000" transform="rotate(75.2687 19.7492 342.081)" id="svg_106" d="m23.36481,347.39462l0.19926,-1.40018l-2.34331,-0.2431c-5.93289,-0.61685 -11.7485,-3.23169 -14.9866,-6.73868c-0.5811,-0.62958 -0.96989,-1.23553 -0.86401,-1.34756c0.24229,-0.25626 6.15025,-2.29639 6.64978,-2.29639c0.20378,0 0.6936,0.37506 1.088,0.83365c1.68321,1.95624 6.03835,3.9964 9.10426,4.26489l1.24323,0.10934l-0.21361,-1.20972c-0.22188,-1.25592 -0.15971,-1.5199 0.35941,-1.5199c0.33186,0 10.23987,4.82281 10.52315,5.12216c0.21484,0.22723 -1.14766,1.06995 -6.02702,3.72653c-2.11963,1.15436 -4.09622,2.09866 -4.39268,2.09866c-0.47453,0 -0.51492,-0.16779 -0.33984,-1.39972l0,0z" stroke-linecap="null" stroke-linejoin="null" stroke-dasharray="null" stroke-width="5" fill="#000000"/>
 </g>
</svg>
